<svg width="32" height="32" viewBox="0 0 32 32" fill="none" xmlns="http://www.w3.org/2000/svg">
<circle opacity="0.93" cx="16" cy="16" r="16" fill="white"/>
<path d="M10.4324 18.086L9.73625 20.6849L7.19176 20.7387C6.43133 19.3283 6 17.7146 6 15.9997C6 14.3415 6.40328 12.7778 7.11813 11.4009H7.11867L9.38399 11.8162L10.3763 14.0679C10.1686 14.6734 10.0554 15.3234 10.0554 15.9997C10.0555 16.7338 10.1885 17.4371 10.4324 18.086Z" fill="#FBBB00"/>
<path d="M25.8252 14.1318C25.94 14.7368 25.9999 15.3615 25.9999 15.9999C25.9999 16.7159 25.9246 17.4142 25.7812 18.0879C25.2944 20.3801 24.0224 22.3818 22.2604 23.7982L22.2598 23.7977L19.4065 23.6521L19.0027 21.1312C20.1719 20.4455 21.0857 19.3725 21.567 18.0879H16.2197V14.1318H21.645H25.8252Z" fill="#518EF8"/>
<path d="M22.2595 23.7979L22.2601 23.7985C20.5464 25.1759 18.3694 26.0001 15.9997 26.0001C12.1914 26.0001 8.88043 23.8715 7.19141 20.7391L10.4321 18.0864C11.2766 20.3402 13.4507 21.9446 15.9997 21.9446C17.0952 21.9446 18.1216 21.6485 19.0024 21.1314L22.2595 23.7979Z" fill="#28B446"/>
<path d="M22.383 8.30217L19.1434 10.9543C18.2319 10.3846 17.1544 10.0554 16 10.0554C13.3934 10.0554 11.1786 11.7334 10.3764 14.0681L7.11871 11.4011H7.11816C8.78246 8.19229 12.1352 6 16 6C18.4264 6 20.6511 6.86429 22.383 8.30217Z" fill="#F14336"/>
</svg>
